<mxfile host="app.diagrams.net" modified="2020-12-14T08:05:35.627Z" agent="5.0 (Windows NT 10.0; Win64; x64) AppleWebKit/537.36 (KHTML, like Gecko) Chrome/87.0.4280.88 Safari/537.36" etag="AiFWN9CYKR0oqZrY6N9g" version="14.0.1" type="github" pages="5">
  <diagram id="svKUOr3XWN7fNxp7WN9r" name="Page-1">
    <mxGraphModel dx="1552" dy="725" grid="1" gridSize="10" guides="1" tooltips="1" connect="1" arrows="1" fold="1" page="1" pageScale="1" pageWidth="1920" pageHeight="1200" math="0" shadow="0">
      <root>
        <mxCell id="0" />
        <mxCell id="1" parent="0" />
        <mxCell id="kK5U0bJvWV72-yDZLgKe-1" value="&lt;font style=&quot;font-size: 30px&quot;&gt;1&lt;/font&gt;" style="ellipse;whiteSpace=wrap;html=1;fillColor=#ffe6cc;strokeColor=#d79b00;" vertex="1" parent="1">
          <mxGeometry x="290" y="520" width="150" height="80" as="geometry" />
        </mxCell>
        <mxCell id="kK5U0bJvWV72-yDZLgKe-2" value="&lt;font style=&quot;font-size: 30px&quot;&gt;1&lt;/font&gt;" style="ellipse;whiteSpace=wrap;html=1;fillColor=#ffe6cc;strokeColor=#d79b00;" vertex="1" parent="1">
          <mxGeometry x="820" y="520" width="150" height="80" as="geometry" />
        </mxCell>
        <mxCell id="kK5U0bJvWV72-yDZLgKe-3" value="&lt;font style=&quot;font-size: 30px&quot;&gt;2&lt;/font&gt;" style="ellipse;whiteSpace=wrap;html=1;fillColor=#ffe6cc;strokeColor=#d79b00;" vertex="1" parent="1">
          <mxGeometry x="570" y="210" width="150" height="80" as="geometry" />
        </mxCell>
        <mxCell id="kK5U0bJvWV72-yDZLgKe-4" value="" style="endArrow=none;html=1;strokeWidth=10;exitX=0.647;exitY=-0.006;exitDx=0;exitDy=0;entryX=0;entryY=1;entryDx=0;entryDy=0;fillColor=#fad9d5;strokeColor=#2DA1AE;exitPerimeter=0;" edge="1" parent="1" source="kK5U0bJvWV72-yDZLgKe-1" target="kK5U0bJvWV72-yDZLgKe-3">
          <mxGeometry width="50" height="50" relative="1" as="geometry">
            <mxPoint x="760" y="430" as="sourcePoint" />
            <mxPoint x="810" y="380" as="targetPoint" />
          </mxGeometry>
        </mxCell>
        <mxCell id="kK5U0bJvWV72-yDZLgKe-5" value="" style="endArrow=none;html=1;strokeWidth=10;exitX=0.34;exitY=-0.037;exitDx=0;exitDy=0;fillColor=#fad9d5;strokeColor=#2DA1AE;exitPerimeter=0;" edge="1" parent="1" source="kK5U0bJvWV72-yDZLgKe-2" target="kK5U0bJvWV72-yDZLgKe-3">
          <mxGeometry width="50" height="50" relative="1" as="geometry">
            <mxPoint x="530" y="510" as="sourcePoint" />
            <mxPoint x="766.9669914110091" y="288.2842712474617" as="targetPoint" />
          </mxGeometry>
        </mxCell>
        <mxCell id="kK5U0bJvWV72-yDZLgKe-6" value="&lt;font style=&quot;font-size: 25px&quot;&gt;Huruf&lt;/font&gt;" style="rounded=0;whiteSpace=wrap;html=1;strokeWidth=5;fillColor=#f8cecc;strokeColor=#23A9B8;" vertex="1" parent="1">
          <mxGeometry x="360" y="1040" width="210" height="60" as="geometry" />
        </mxCell>
        <mxCell id="kK5U0bJvWV72-yDZLgKe-7" value="&lt;span style=&quot;font-size: 25px&quot;&gt;Code&lt;/span&gt;" style="rounded=0;whiteSpace=wrap;html=1;strokeWidth=5;fillColor=#f8cecc;strokeColor=#23A9B8;" vertex="1" parent="1">
          <mxGeometry x="570" y="1040" width="210" height="60" as="geometry" />
        </mxCell>
        <mxCell id="kK5U0bJvWV72-yDZLgKe-8" value="&lt;font style=&quot;font-size: 30px&quot;&gt;KukuKakiKuda&lt;/font&gt;" style="text;html=1;align=center;verticalAlign=middle;resizable=0;points=[];autosize=1;strokeWidth=5;fillColor=#f8cecc;strokeColor=#23A9B8;" vertex="1" parent="1">
          <mxGeometry x="450" y="950" width="210" height="30" as="geometry" />
        </mxCell>
        <mxCell id="kK5U0bJvWV72-yDZLgKe-9" value="&lt;font style=&quot;font-size: 25px&quot;&gt;A&lt;/font&gt;" style="rounded=0;whiteSpace=wrap;html=1;strokeWidth=5;fillColor=#f8cecc;strokeColor=#23A9B8;" vertex="1" parent="1">
          <mxGeometry x="360" y="1100" width="210" height="60" as="geometry" />
        </mxCell>
        <mxCell id="kK5U0bJvWV72-yDZLgKe-10" value="&lt;span style=&quot;font-size: 25px&quot;&gt;0011&lt;/span&gt;" style="rounded=0;whiteSpace=wrap;html=1;strokeWidth=5;fillColor=#f8cecc;strokeColor=#23A9B8;" vertex="1" parent="1">
          <mxGeometry x="570" y="1100" width="210" height="60" as="geometry" />
        </mxCell>
        <mxCell id="kK5U0bJvWV72-yDZLgKe-11" value="&lt;font style=&quot;font-size: 25px&quot;&gt;D&lt;/font&gt;" style="rounded=0;whiteSpace=wrap;html=1;strokeWidth=5;fillColor=#f8cecc;strokeColor=#23A9B8;" vertex="1" parent="1">
          <mxGeometry x="360" y="1160" width="210" height="60" as="geometry" />
        </mxCell>
        <mxCell id="kK5U0bJvWV72-yDZLgKe-12" value="&lt;span style=&quot;font-size: 25px&quot;&gt;1011&lt;/span&gt;" style="rounded=0;whiteSpace=wrap;html=1;strokeWidth=5;fillColor=#f8cecc;strokeColor=#23A9B8;" vertex="1" parent="1">
          <mxGeometry x="570" y="1160" width="210" height="60" as="geometry" />
        </mxCell>
        <mxCell id="kK5U0bJvWV72-yDZLgKe-13" value="&lt;font style=&quot;font-size: 25px&quot;&gt;I&lt;/font&gt;" style="rounded=0;whiteSpace=wrap;html=1;strokeWidth=5;fillColor=#f8cecc;strokeColor=#23A9B8;" vertex="1" parent="1">
          <mxGeometry x="360" y="1220" width="210" height="60" as="geometry" />
        </mxCell>
        <mxCell id="kK5U0bJvWV72-yDZLgKe-14" value="&lt;span style=&quot;font-size: 25px&quot;&gt;111&lt;/span&gt;" style="rounded=0;whiteSpace=wrap;html=1;strokeWidth=5;fillColor=#f8cecc;strokeColor=#23A9B8;" vertex="1" parent="1">
          <mxGeometry x="570" y="1220" width="210" height="60" as="geometry" />
        </mxCell>
        <mxCell id="kK5U0bJvWV72-yDZLgKe-15" value="&lt;font style=&quot;font-size: 25px&quot;&gt;K&lt;/font&gt;" style="rounded=0;whiteSpace=wrap;html=1;strokeWidth=5;fillColor=#f8cecc;strokeColor=#23A9B8;" vertex="1" parent="1">
          <mxGeometry x="360" y="1280" width="210" height="60" as="geometry" />
        </mxCell>
        <mxCell id="kK5U0bJvWV72-yDZLgKe-16" value="&lt;span style=&quot;font-size: 25px&quot;&gt;01&lt;/span&gt;" style="rounded=0;whiteSpace=wrap;html=1;strokeWidth=5;fillColor=#f8cecc;strokeColor=#23A9B8;" vertex="1" parent="1">
          <mxGeometry x="570" y="1280" width="210" height="60" as="geometry" />
        </mxCell>
        <mxCell id="kK5U0bJvWV72-yDZLgKe-17" value="&lt;font style=&quot;font-size: 25px&quot;&gt;u&lt;/font&gt;" style="rounded=0;whiteSpace=wrap;html=1;strokeWidth=5;fillColor=#f8cecc;strokeColor=#23A9B8;" vertex="1" parent="1">
          <mxGeometry x="360" y="1340" width="210" height="60" as="geometry" />
        </mxCell>
        <mxCell id="kK5U0bJvWV72-yDZLgKe-18" value="&lt;span style=&quot;font-size: 25px&quot;&gt;0&lt;/span&gt;" style="rounded=0;whiteSpace=wrap;html=1;strokeWidth=5;fillColor=#f8cecc;strokeColor=#23A9B8;" vertex="1" parent="1">
          <mxGeometry x="570" y="1340" width="210" height="60" as="geometry" />
        </mxCell>
        <mxCell id="kK5U0bJvWV72-yDZLgKe-19" value="&lt;font style=&quot;font-size: 25px&quot;&gt;Huruf&lt;/font&gt;" style="rounded=0;whiteSpace=wrap;html=1;strokeWidth=5;fillColor=#f8cecc;strokeColor=#23A9B8;" vertex="1" parent="1">
          <mxGeometry x="940" y="1180" width="210" height="60" as="geometry" />
        </mxCell>
        <mxCell id="kK5U0bJvWV72-yDZLgKe-20" value="&lt;span style=&quot;font-size: 25px&quot;&gt;Frekuensi&lt;/span&gt;" style="rounded=0;whiteSpace=wrap;html=1;strokeWidth=5;fillColor=#f8cecc;strokeColor=#23A9B8;" vertex="1" parent="1">
          <mxGeometry x="1150" y="1180" width="210" height="60" as="geometry" />
        </mxCell>
        <mxCell id="kK5U0bJvWV72-yDZLgKe-23" value="&lt;font style=&quot;font-size: 25px&quot;&gt;DI&lt;/font&gt;" style="rounded=0;whiteSpace=wrap;html=1;strokeWidth=5;fillColor=#f8cecc;strokeColor=#23A9B8;" vertex="1" parent="1">
          <mxGeometry x="940" y="1240" width="210" height="60" as="geometry" />
        </mxCell>
        <mxCell id="kK5U0bJvWV72-yDZLgKe-24" value="&lt;span style=&quot;font-size: 25px&quot;&gt;2&lt;/span&gt;" style="rounded=0;whiteSpace=wrap;html=1;strokeWidth=5;fillColor=#f8cecc;strokeColor=#23A9B8;" vertex="1" parent="1">
          <mxGeometry x="1150" y="1240" width="210" height="60" as="geometry" />
        </mxCell>
        <mxCell id="kK5U0bJvWV72-yDZLgKe-25" value="&lt;font style=&quot;font-size: 25px&quot;&gt;A&lt;/font&gt;" style="rounded=0;whiteSpace=wrap;html=1;strokeWidth=5;fillColor=#f8cecc;strokeColor=#23A9B8;" vertex="1" parent="1">
          <mxGeometry x="940" y="1300" width="210" height="60" as="geometry" />
        </mxCell>
        <mxCell id="kK5U0bJvWV72-yDZLgKe-26" value="&lt;span style=&quot;font-size: 25px&quot;&gt;2&lt;/span&gt;" style="rounded=0;whiteSpace=wrap;html=1;strokeWidth=5;fillColor=#f8cecc;strokeColor=#23A9B8;" vertex="1" parent="1">
          <mxGeometry x="1150" y="1300" width="210" height="60" as="geometry" />
        </mxCell>
        <mxCell id="kK5U0bJvWV72-yDZLgKe-27" value="&lt;font style=&quot;font-size: 25px&quot;&gt;U&lt;/font&gt;" style="rounded=0;whiteSpace=wrap;html=1;strokeWidth=5;fillColor=#f8cecc;strokeColor=#23A9B8;" vertex="1" parent="1">
          <mxGeometry x="940" y="1360" width="210" height="60" as="geometry" />
        </mxCell>
        <mxCell id="kK5U0bJvWV72-yDZLgKe-28" value="&lt;span style=&quot;font-size: 25px&quot;&gt;3&lt;/span&gt;" style="rounded=0;whiteSpace=wrap;html=1;strokeWidth=5;fillColor=#f8cecc;strokeColor=#23A9B8;" vertex="1" parent="1">
          <mxGeometry x="1150" y="1360" width="210" height="60" as="geometry" />
        </mxCell>
        <mxCell id="kK5U0bJvWV72-yDZLgKe-29" value="&lt;font style=&quot;font-size: 25px&quot;&gt;K&lt;/font&gt;" style="rounded=0;whiteSpace=wrap;html=1;strokeWidth=5;fillColor=#f8cecc;strokeColor=#23A9B8;" vertex="1" parent="1">
          <mxGeometry x="940" y="1420" width="210" height="60" as="geometry" />
        </mxCell>
        <mxCell id="kK5U0bJvWV72-yDZLgKe-30" value="&lt;span style=&quot;font-size: 25px&quot;&gt;5&lt;/span&gt;" style="rounded=0;whiteSpace=wrap;html=1;strokeWidth=5;fillColor=#f8cecc;strokeColor=#23A9B8;" vertex="1" parent="1">
          <mxGeometry x="1150" y="1420" width="210" height="60" as="geometry" />
        </mxCell>
      </root>
    </mxGraphModel>
  </diagram>
  <diagram id="_j8kYRalFG2eUDo7lElJ" name="Page-2">
    <mxGraphModel dx="1552" dy="725" grid="1" gridSize="10" guides="1" tooltips="1" connect="1" arrows="1" fold="1" page="1" pageScale="1" pageWidth="1920" pageHeight="1200" math="0" shadow="0">
      <root>
        <mxCell id="cScY4hhhb2HYeAB2cHlG-0" />
        <mxCell id="cScY4hhhb2HYeAB2cHlG-1" parent="cScY4hhhb2HYeAB2cHlG-0" />
        <mxCell id="VRj1FAu2X6qf7PMCmN-N-0" value="&lt;font style=&quot;font-size: 30px&quot;&gt;2&lt;/font&gt;" style="ellipse;whiteSpace=wrap;html=1;fillColor=#ffe6cc;strokeColor=#d79b00;" vertex="1" parent="cScY4hhhb2HYeAB2cHlG-1">
          <mxGeometry x="370" y="410" width="150" height="80" as="geometry" />
        </mxCell>
        <mxCell id="VRj1FAu2X6qf7PMCmN-N-1" value="&lt;font style=&quot;font-size: 30px&quot;&gt;2&lt;/font&gt;" style="ellipse;whiteSpace=wrap;html=1;fillColor=#ffe6cc;strokeColor=#d79b00;" vertex="1" parent="cScY4hhhb2HYeAB2cHlG-1">
          <mxGeometry x="820" y="510" width="150" height="80" as="geometry" />
        </mxCell>
        <mxCell id="VRj1FAu2X6qf7PMCmN-N-2" value="&lt;font style=&quot;font-size: 30px&quot;&gt;4&lt;/font&gt;" style="ellipse;whiteSpace=wrap;html=1;fillColor=#ffe6cc;strokeColor=#d79b00;" vertex="1" parent="cScY4hhhb2HYeAB2cHlG-1">
          <mxGeometry x="570" y="200" width="150" height="80" as="geometry" />
        </mxCell>
        <mxCell id="VRj1FAu2X6qf7PMCmN-N-3" value="" style="endArrow=none;html=1;strokeWidth=10;exitX=0.647;exitY=-0.006;exitDx=0;exitDy=0;entryX=0;entryY=1;entryDx=0;entryDy=0;fillColor=#fad9d5;strokeColor=#2DA1AE;exitPerimeter=0;" edge="1" parent="cScY4hhhb2HYeAB2cHlG-1" source="VRj1FAu2X6qf7PMCmN-N-0" target="VRj1FAu2X6qf7PMCmN-N-2">
          <mxGeometry width="50" height="50" relative="1" as="geometry">
            <mxPoint x="760" y="420" as="sourcePoint" />
            <mxPoint x="810" y="370" as="targetPoint" />
          </mxGeometry>
        </mxCell>
        <mxCell id="VRj1FAu2X6qf7PMCmN-N-4" value="" style="endArrow=none;html=1;strokeWidth=10;exitX=0.34;exitY=-0.037;exitDx=0;exitDy=0;fillColor=#fad9d5;strokeColor=#2DA1AE;exitPerimeter=0;" edge="1" parent="cScY4hhhb2HYeAB2cHlG-1" source="VRj1FAu2X6qf7PMCmN-N-1" target="VRj1FAu2X6qf7PMCmN-N-2">
          <mxGeometry width="50" height="50" relative="1" as="geometry">
            <mxPoint x="530" y="500" as="sourcePoint" />
            <mxPoint x="766.9669914110091" y="278.2842712474617" as="targetPoint" />
          </mxGeometry>
        </mxCell>
        <mxCell id="BJuKz8awHCJj2VaXPGnp-0" value="&lt;font style=&quot;font-size: 25px&quot;&gt;Huruf&lt;/font&gt;" style="rounded=0;whiteSpace=wrap;html=1;strokeWidth=5;fillColor=#f8cecc;strokeColor=#23A9B8;" vertex="1" parent="cScY4hhhb2HYeAB2cHlG-1">
          <mxGeometry x="720" y="1330" width="210" height="60" as="geometry" />
        </mxCell>
        <mxCell id="BJuKz8awHCJj2VaXPGnp-1" value="&lt;span style=&quot;font-size: 25px&quot;&gt;Frekuensi&lt;/span&gt;" style="rounded=0;whiteSpace=wrap;html=1;strokeWidth=5;fillColor=#f8cecc;strokeColor=#23A9B8;" vertex="1" parent="cScY4hhhb2HYeAB2cHlG-1">
          <mxGeometry x="930" y="1330" width="210" height="60" as="geometry" />
        </mxCell>
        <mxCell id="BJuKz8awHCJj2VaXPGnp-4" value="&lt;font style=&quot;font-size: 25px&quot;&gt;DIA&lt;/font&gt;" style="rounded=0;whiteSpace=wrap;html=1;strokeWidth=5;fillColor=#f8cecc;strokeColor=#23A9B8;" vertex="1" parent="cScY4hhhb2HYeAB2cHlG-1">
          <mxGeometry x="720" y="1450" width="210" height="60" as="geometry" />
        </mxCell>
        <mxCell id="BJuKz8awHCJj2VaXPGnp-5" value="&lt;span style=&quot;font-size: 25px&quot;&gt;4&lt;/span&gt;" style="rounded=0;whiteSpace=wrap;html=1;strokeWidth=5;fillColor=#f8cecc;strokeColor=#23A9B8;" vertex="1" parent="cScY4hhhb2HYeAB2cHlG-1">
          <mxGeometry x="930" y="1450" width="210" height="60" as="geometry" />
        </mxCell>
        <mxCell id="BJuKz8awHCJj2VaXPGnp-6" value="&lt;font style=&quot;font-size: 25px&quot;&gt;U&lt;/font&gt;" style="rounded=0;whiteSpace=wrap;html=1;strokeWidth=5;fillColor=#f8cecc;strokeColor=#23A9B8;" vertex="1" parent="cScY4hhhb2HYeAB2cHlG-1">
          <mxGeometry x="720" y="1390" width="210" height="60" as="geometry" />
        </mxCell>
        <mxCell id="BJuKz8awHCJj2VaXPGnp-7" value="&lt;span style=&quot;font-size: 25px&quot;&gt;3&lt;/span&gt;" style="rounded=0;whiteSpace=wrap;html=1;strokeWidth=5;fillColor=#f8cecc;strokeColor=#23A9B8;" vertex="1" parent="cScY4hhhb2HYeAB2cHlG-1">
          <mxGeometry x="930" y="1390" width="210" height="60" as="geometry" />
        </mxCell>
        <mxCell id="BJuKz8awHCJj2VaXPGnp-8" value="&lt;font style=&quot;font-size: 25px&quot;&gt;K&lt;/font&gt;" style="rounded=0;whiteSpace=wrap;html=1;strokeWidth=5;fillColor=#f8cecc;strokeColor=#23A9B8;" vertex="1" parent="cScY4hhhb2HYeAB2cHlG-1">
          <mxGeometry x="720" y="1510" width="210" height="60" as="geometry" />
        </mxCell>
        <mxCell id="BJuKz8awHCJj2VaXPGnp-9" value="&lt;span style=&quot;font-size: 25px&quot;&gt;5&lt;/span&gt;" style="rounded=0;whiteSpace=wrap;html=1;strokeWidth=5;fillColor=#f8cecc;strokeColor=#23A9B8;" vertex="1" parent="cScY4hhhb2HYeAB2cHlG-1">
          <mxGeometry x="930" y="1510" width="210" height="60" as="geometry" />
        </mxCell>
        <mxCell id="BJuKz8awHCJj2VaXPGnp-10" value="&lt;font style=&quot;font-size: 30px&quot;&gt;1&lt;/font&gt;" style="ellipse;whiteSpace=wrap;html=1;fillColor=#ffe6cc;strokeColor=#d79b00;" vertex="1" parent="cScY4hhhb2HYeAB2cHlG-1">
          <mxGeometry x="190" y="580" width="150" height="80" as="geometry" />
        </mxCell>
        <mxCell id="BJuKz8awHCJj2VaXPGnp-11" value="&lt;font style=&quot;font-size: 30px&quot;&gt;1&lt;/font&gt;" style="ellipse;whiteSpace=wrap;html=1;fillColor=#ffe6cc;strokeColor=#d79b00;" vertex="1" parent="cScY4hhhb2HYeAB2cHlG-1">
          <mxGeometry x="470" y="580" width="150" height="80" as="geometry" />
        </mxCell>
        <mxCell id="BJuKz8awHCJj2VaXPGnp-13" value="" style="endArrow=none;html=1;strokeWidth=10;exitX=0.647;exitY=-0.006;exitDx=0;exitDy=0;entryX=0.247;entryY=0.919;entryDx=0;entryDy=0;fillColor=#fad9d5;strokeColor=#2DA1AE;exitPerimeter=0;entryPerimeter=0;" edge="1" parent="cScY4hhhb2HYeAB2cHlG-1" source="BJuKz8awHCJj2VaXPGnp-10" target="VRj1FAu2X6qf7PMCmN-N-0">
          <mxGeometry width="50" height="50" relative="1" as="geometry">
            <mxPoint x="700" y="640" as="sourcePoint" />
            <mxPoint x="531.9669914110091" y="488.28427124746213" as="targetPoint" />
          </mxGeometry>
        </mxCell>
        <mxCell id="BJuKz8awHCJj2VaXPGnp-14" value="" style="endArrow=none;html=1;strokeWidth=10;exitX=0.34;exitY=-0.037;exitDx=0;exitDy=0;fillColor=#fad9d5;strokeColor=#2DA1AE;exitPerimeter=0;" edge="1" parent="cScY4hhhb2HYeAB2cHlG-1" source="BJuKz8awHCJj2VaXPGnp-11" target="VRj1FAu2X6qf7PMCmN-N-0">
          <mxGeometry width="50" height="50" relative="1" as="geometry">
            <mxPoint x="264.14" y="793.54" as="sourcePoint" />
            <mxPoint x="409.99894302165205" y="569.9972468441642" as="targetPoint" />
          </mxGeometry>
        </mxCell>
      </root>
    </mxGraphModel>
  </diagram>
  <diagram id="aiLecgrPvgeNE7XovwLJ" name="Page-3">
    <mxGraphModel dx="1552" dy="725" grid="1" gridSize="10" guides="1" tooltips="1" connect="1" arrows="1" fold="1" page="1" pageScale="1" pageWidth="1920" pageHeight="1200" math="0" shadow="0">
      <root>
        <mxCell id="fPlMiisQCB__7LqxhbQ0-0" />
        <mxCell id="fPlMiisQCB__7LqxhbQ0-1" parent="fPlMiisQCB__7LqxhbQ0-0" />
        <mxCell id="fPlMiisQCB__7LqxhbQ0-2" value="&lt;font style=&quot;font-size: 30px&quot;&gt;2&lt;/font&gt;" style="ellipse;whiteSpace=wrap;html=1;fillColor=#ffe6cc;strokeColor=#d79b00;" vertex="1" parent="fPlMiisQCB__7LqxhbQ0-1">
          <mxGeometry x="780" y="770" width="150" height="80" as="geometry" />
        </mxCell>
        <mxCell id="fPlMiisQCB__7LqxhbQ0-3" value="&lt;font style=&quot;font-size: 30px&quot;&gt;2&lt;/font&gt;" style="ellipse;whiteSpace=wrap;html=1;fillColor=#ffe6cc;strokeColor=#d79b00;" vertex="1" parent="fPlMiisQCB__7LqxhbQ0-1">
          <mxGeometry x="1130" y="920" width="150" height="80" as="geometry" />
        </mxCell>
        <mxCell id="fPlMiisQCB__7LqxhbQ0-4" value="&lt;font style=&quot;font-size: 30px&quot;&gt;4&lt;/font&gt;" style="ellipse;whiteSpace=wrap;html=1;fillColor=#ffe6cc;strokeColor=#d79b00;" vertex="1" parent="fPlMiisQCB__7LqxhbQ0-1">
          <mxGeometry x="860" y="620" width="150" height="80" as="geometry" />
        </mxCell>
        <mxCell id="fPlMiisQCB__7LqxhbQ0-5" value="" style="endArrow=none;html=1;strokeWidth=10;exitX=0.5;exitY=0;exitDx=0;exitDy=0;entryX=0.383;entryY=0.994;entryDx=0;entryDy=0;fillColor=#fad9d5;strokeColor=#2DA1AE;entryPerimeter=0;" edge="1" parent="fPlMiisQCB__7LqxhbQ0-1" source="fPlMiisQCB__7LqxhbQ0-2" target="fPlMiisQCB__7LqxhbQ0-4">
          <mxGeometry width="50" height="50" relative="1" as="geometry">
            <mxPoint x="1010" y="830" as="sourcePoint" />
            <mxPoint x="1060" y="780" as="targetPoint" />
          </mxGeometry>
        </mxCell>
        <mxCell id="fPlMiisQCB__7LqxhbQ0-6" value="" style="endArrow=none;html=1;strokeWidth=10;exitX=0.34;exitY=-0.037;exitDx=0;exitDy=0;fillColor=#fad9d5;strokeColor=#2DA1AE;exitPerimeter=0;" edge="1" parent="fPlMiisQCB__7LqxhbQ0-1" source="fPlMiisQCB__7LqxhbQ0-3" target="fPlMiisQCB__7LqxhbQ0-4">
          <mxGeometry width="50" height="50" relative="1" as="geometry">
            <mxPoint x="780" y="910" as="sourcePoint" />
            <mxPoint x="1016.9669914110091" y="688.2842712474617" as="targetPoint" />
          </mxGeometry>
        </mxCell>
        <mxCell id="fPlMiisQCB__7LqxhbQ0-7" value="&lt;font style=&quot;font-size: 25px&quot;&gt;Huruf&lt;/font&gt;" style="rounded=0;whiteSpace=wrap;html=1;strokeWidth=5;fillColor=#f8cecc;strokeColor=#23A9B8;" vertex="1" parent="fPlMiisQCB__7LqxhbQ0-1">
          <mxGeometry x="720" y="1330" width="210" height="60" as="geometry" />
        </mxCell>
        <mxCell id="fPlMiisQCB__7LqxhbQ0-8" value="&lt;span style=&quot;font-size: 25px&quot;&gt;Frekuensi&lt;/span&gt;" style="rounded=0;whiteSpace=wrap;html=1;strokeWidth=5;fillColor=#f8cecc;strokeColor=#23A9B8;" vertex="1" parent="fPlMiisQCB__7LqxhbQ0-1">
          <mxGeometry x="930" y="1330" width="210" height="60" as="geometry" />
        </mxCell>
        <mxCell id="fPlMiisQCB__7LqxhbQ0-9" value="&lt;span style=&quot;font-size: 25px&quot;&gt;DIAU&lt;/span&gt;" style="rounded=0;whiteSpace=wrap;html=1;strokeWidth=5;fillColor=#f8cecc;strokeColor=#23A9B8;" vertex="1" parent="fPlMiisQCB__7LqxhbQ0-1">
          <mxGeometry x="720" y="1450" width="210" height="60" as="geometry" />
        </mxCell>
        <mxCell id="fPlMiisQCB__7LqxhbQ0-10" value="&lt;span style=&quot;font-size: 25px&quot;&gt;7&lt;/span&gt;" style="rounded=0;whiteSpace=wrap;html=1;strokeWidth=5;fillColor=#f8cecc;strokeColor=#23A9B8;" vertex="1" parent="fPlMiisQCB__7LqxhbQ0-1">
          <mxGeometry x="930" y="1450" width="210" height="60" as="geometry" />
        </mxCell>
        <mxCell id="fPlMiisQCB__7LqxhbQ0-13" value="&lt;font style=&quot;font-size: 25px&quot;&gt;K&lt;/font&gt;" style="rounded=0;whiteSpace=wrap;html=1;strokeWidth=5;fillColor=#f8cecc;strokeColor=#23A9B8;" vertex="1" parent="fPlMiisQCB__7LqxhbQ0-1">
          <mxGeometry x="720" y="1390" width="210" height="60" as="geometry" />
        </mxCell>
        <mxCell id="fPlMiisQCB__7LqxhbQ0-14" value="&lt;span style=&quot;font-size: 25px&quot;&gt;5&lt;/span&gt;" style="rounded=0;whiteSpace=wrap;html=1;strokeWidth=5;fillColor=#f8cecc;strokeColor=#23A9B8;" vertex="1" parent="fPlMiisQCB__7LqxhbQ0-1">
          <mxGeometry x="930" y="1390" width="210" height="60" as="geometry" />
        </mxCell>
        <mxCell id="fPlMiisQCB__7LqxhbQ0-15" value="&lt;font style=&quot;font-size: 30px&quot;&gt;1&lt;/font&gt;" style="ellipse;whiteSpace=wrap;html=1;fillColor=#ffe6cc;strokeColor=#d79b00;" vertex="1" parent="fPlMiisQCB__7LqxhbQ0-1">
          <mxGeometry x="640" y="920" width="150" height="80" as="geometry" />
        </mxCell>
        <mxCell id="fPlMiisQCB__7LqxhbQ0-16" value="&lt;font style=&quot;font-size: 30px&quot;&gt;1&lt;/font&gt;" style="ellipse;whiteSpace=wrap;html=1;fillColor=#ffe6cc;strokeColor=#d79b00;" vertex="1" parent="fPlMiisQCB__7LqxhbQ0-1">
          <mxGeometry x="890" y="920" width="150" height="80" as="geometry" />
        </mxCell>
        <mxCell id="fPlMiisQCB__7LqxhbQ0-17" value="" style="endArrow=none;html=1;strokeWidth=10;exitX=0.647;exitY=-0.006;exitDx=0;exitDy=0;entryX=0.247;entryY=0.919;entryDx=0;entryDy=0;fillColor=#fad9d5;strokeColor=#2DA1AE;exitPerimeter=0;entryPerimeter=0;" edge="1" parent="fPlMiisQCB__7LqxhbQ0-1" source="fPlMiisQCB__7LqxhbQ0-15" target="fPlMiisQCB__7LqxhbQ0-2">
          <mxGeometry width="50" height="50" relative="1" as="geometry">
            <mxPoint x="950" y="1050" as="sourcePoint" />
            <mxPoint x="781.9669914110091" y="898.2842712474621" as="targetPoint" />
          </mxGeometry>
        </mxCell>
        <mxCell id="fPlMiisQCB__7LqxhbQ0-18" value="" style="endArrow=none;html=1;strokeWidth=10;exitX=0.34;exitY=-0.037;exitDx=0;exitDy=0;fillColor=#fad9d5;strokeColor=#2DA1AE;exitPerimeter=0;" edge="1" parent="fPlMiisQCB__7LqxhbQ0-1" source="fPlMiisQCB__7LqxhbQ0-16" target="fPlMiisQCB__7LqxhbQ0-2">
          <mxGeometry width="50" height="50" relative="1" as="geometry">
            <mxPoint x="514.14" y="1203.54" as="sourcePoint" />
            <mxPoint x="659.998943021652" y="979.9972468441642" as="targetPoint" />
          </mxGeometry>
        </mxCell>
        <mxCell id="RZ0sm6HpRoHIhiZhEW5n-0" value="&lt;font style=&quot;font-size: 30px&quot;&gt;3&lt;/font&gt;" style="ellipse;whiteSpace=wrap;html=1;fillColor=#ffe6cc;strokeColor=#d79b00;" vertex="1" parent="fPlMiisQCB__7LqxhbQ0-1">
          <mxGeometry x="400" y="630" width="150" height="80" as="geometry" />
        </mxCell>
        <mxCell id="RZ0sm6HpRoHIhiZhEW5n-1" value="&lt;font style=&quot;font-size: 30px&quot;&gt;7&lt;/font&gt;" style="ellipse;whiteSpace=wrap;html=1;fillColor=#ffe6cc;strokeColor=#d79b00;" vertex="1" parent="fPlMiisQCB__7LqxhbQ0-1">
          <mxGeometry x="630" y="430" width="150" height="80" as="geometry" />
        </mxCell>
        <mxCell id="RZ0sm6HpRoHIhiZhEW5n-2" value="" style="endArrow=none;html=1;strokeWidth=10;exitX=0.5;exitY=0;exitDx=0;exitDy=0;entryX=0;entryY=1;entryDx=0;entryDy=0;fillColor=#fad9d5;strokeColor=#2DA1AE;" edge="1" parent="fPlMiisQCB__7LqxhbQ0-1" source="RZ0sm6HpRoHIhiZhEW5n-0" target="RZ0sm6HpRoHIhiZhEW5n-1">
          <mxGeometry width="50" height="50" relative="1" as="geometry">
            <mxPoint x="500.00000000000017" y="646" as="sourcePoint" />
            <mxPoint x="580.0000000000002" y="530" as="targetPoint" />
          </mxGeometry>
        </mxCell>
        <mxCell id="RZ0sm6HpRoHIhiZhEW5n-3" value="" style="endArrow=none;html=1;strokeWidth=10;fillColor=#fad9d5;strokeColor=#2DA1AE;" edge="1" parent="fPlMiisQCB__7LqxhbQ0-1" source="fPlMiisQCB__7LqxhbQ0-4" target="RZ0sm6HpRoHIhiZhEW5n-1">
          <mxGeometry width="50" height="50" relative="1" as="geometry">
            <mxPoint x="465" y="750" as="sourcePoint" />
            <mxPoint x="590" y="540" as="targetPoint" />
          </mxGeometry>
        </mxCell>
        <mxCell id="RZ0sm6HpRoHIhiZhEW5n-9" value="&lt;font style=&quot;font-size: 41px&quot;&gt;U&lt;/font&gt;" style="text;html=1;align=center;verticalAlign=middle;resizable=0;points=[];autosize=1;strokeWidth=1;fontSize=30;fontStyle=1;fontColor=#FFFF00;" vertex="1" parent="fPlMiisQCB__7LqxhbQ0-1">
          <mxGeometry x="435" y="730" width="50" height="40" as="geometry" />
        </mxCell>
        <mxCell id="RZ0sm6HpRoHIhiZhEW5n-10" value="&lt;font style=&quot;font-size: 41px&quot;&gt;D&lt;/font&gt;" style="text;html=1;align=center;verticalAlign=middle;resizable=0;points=[];autosize=1;strokeWidth=1;fontSize=30;fontStyle=1;fontColor=#FFFF00;" vertex="1" parent="fPlMiisQCB__7LqxhbQ0-1">
          <mxGeometry x="680" y="1030" width="50" height="40" as="geometry" />
        </mxCell>
        <mxCell id="RZ0sm6HpRoHIhiZhEW5n-11" value="&lt;font style=&quot;font-size: 41px&quot;&gt;I&lt;/font&gt;" style="text;html=1;align=center;verticalAlign=middle;resizable=0;points=[];autosize=1;strokeWidth=1;fontSize=30;fontStyle=1;fontColor=#FFFF00;" vertex="1" parent="fPlMiisQCB__7LqxhbQ0-1">
          <mxGeometry x="945" y="1030" width="30" height="40" as="geometry" />
        </mxCell>
        <mxCell id="RZ0sm6HpRoHIhiZhEW5n-12" value="&lt;font style=&quot;font-size: 41px&quot;&gt;A&lt;/font&gt;" style="text;html=1;align=center;verticalAlign=middle;resizable=0;points=[];autosize=1;strokeWidth=1;fontSize=30;fontStyle=1;fontColor=#FFFF00;" vertex="1" parent="fPlMiisQCB__7LqxhbQ0-1">
          <mxGeometry x="1190" y="1030" width="50" height="40" as="geometry" />
        </mxCell>
        <mxCell id="RZ0sm6HpRoHIhiZhEW5n-13" value="&lt;font style=&quot;font-size: 41px&quot;&gt;DI&lt;/font&gt;" style="text;html=1;align=center;verticalAlign=middle;resizable=0;points=[];autosize=1;strokeWidth=1;fontSize=30;fontStyle=1;fontColor=#FFFF00;" vertex="1" parent="fPlMiisQCB__7LqxhbQ0-1">
          <mxGeometry x="695" y="790" width="60" height="40" as="geometry" />
        </mxCell>
        <mxCell id="RZ0sm6HpRoHIhiZhEW5n-14" value="&lt;font style=&quot;font-size: 41px&quot;&gt;DIA&lt;/font&gt;" style="text;html=1;align=center;verticalAlign=middle;resizable=0;points=[];autosize=1;strokeWidth=1;fontSize=30;fontStyle=1;fontColor=#FFFF00;" vertex="1" parent="fPlMiisQCB__7LqxhbQ0-1">
          <mxGeometry x="1050" y="640" width="90" height="40" as="geometry" />
        </mxCell>
      </root>
    </mxGraphModel>
  </diagram>
  <diagram id="zHjimOvTymyu8roIItY1" name="Page-4">
    <mxGraphModel dx="1552" dy="725" grid="1" gridSize="10" guides="1" tooltips="1" connect="1" arrows="1" fold="1" page="1" pageScale="1" pageWidth="1920" pageHeight="1200" math="0" shadow="0">
      <root>
        <mxCell id="QwPzHOpJwuAM30xLEDTP-0" />
        <mxCell id="QwPzHOpJwuAM30xLEDTP-1" parent="QwPzHOpJwuAM30xLEDTP-0" />
        <mxCell id="QwPzHOpJwuAM30xLEDTP-2" value="&lt;font style=&quot;font-size: 30px&quot;&gt;2&lt;/font&gt;" style="ellipse;whiteSpace=wrap;html=1;fillColor=#ffe6cc;strokeColor=#d79b00;" vertex="1" parent="QwPzHOpJwuAM30xLEDTP-1">
          <mxGeometry x="810" y="850" width="150" height="80" as="geometry" />
        </mxCell>
        <mxCell id="QwPzHOpJwuAM30xLEDTP-3" value="&lt;font style=&quot;font-size: 30px&quot;&gt;2&lt;/font&gt;" style="ellipse;whiteSpace=wrap;html=1;fillColor=#ffe6cc;strokeColor=#d79b00;" vertex="1" parent="QwPzHOpJwuAM30xLEDTP-1">
          <mxGeometry x="1160" y="1000" width="150" height="80" as="geometry" />
        </mxCell>
        <mxCell id="QwPzHOpJwuAM30xLEDTP-4" value="&lt;font style=&quot;font-size: 30px&quot;&gt;4&lt;/font&gt;" style="ellipse;whiteSpace=wrap;html=1;fillColor=#ffe6cc;strokeColor=#d79b00;" vertex="1" parent="QwPzHOpJwuAM30xLEDTP-1">
          <mxGeometry x="890" y="700" width="150" height="80" as="geometry" />
        </mxCell>
        <mxCell id="QwPzHOpJwuAM30xLEDTP-5" value="" style="endArrow=none;html=1;strokeWidth=10;exitX=0.5;exitY=0;exitDx=0;exitDy=0;entryX=0.383;entryY=0.994;entryDx=0;entryDy=0;fillColor=#fad9d5;strokeColor=#2DA1AE;entryPerimeter=0;" edge="1" parent="QwPzHOpJwuAM30xLEDTP-1" source="QwPzHOpJwuAM30xLEDTP-2" target="QwPzHOpJwuAM30xLEDTP-4">
          <mxGeometry width="50" height="50" relative="1" as="geometry">
            <mxPoint x="1040" y="910" as="sourcePoint" />
            <mxPoint x="1090" y="860" as="targetPoint" />
          </mxGeometry>
        </mxCell>
        <mxCell id="QwPzHOpJwuAM30xLEDTP-6" value="" style="endArrow=none;html=1;strokeWidth=10;exitX=0.34;exitY=-0.037;exitDx=0;exitDy=0;fillColor=#fad9d5;strokeColor=#2DA1AE;exitPerimeter=0;" edge="1" parent="QwPzHOpJwuAM30xLEDTP-1" source="QwPzHOpJwuAM30xLEDTP-3" target="QwPzHOpJwuAM30xLEDTP-4">
          <mxGeometry width="50" height="50" relative="1" as="geometry">
            <mxPoint x="810" y="990" as="sourcePoint" />
            <mxPoint x="1046.966991411009" y="768.2842712474617" as="targetPoint" />
          </mxGeometry>
        </mxCell>
        <mxCell id="QwPzHOpJwuAM30xLEDTP-7" value="&lt;font style=&quot;font-size: 25px&quot;&gt;Huruf&lt;/font&gt;" style="rounded=0;whiteSpace=wrap;html=1;strokeWidth=5;fillColor=#f8cecc;strokeColor=#23A9B8;" vertex="1" parent="QwPzHOpJwuAM30xLEDTP-1">
          <mxGeometry x="720" y="1330" width="210" height="60" as="geometry" />
        </mxCell>
        <mxCell id="QwPzHOpJwuAM30xLEDTP-8" value="&lt;span style=&quot;font-size: 25px&quot;&gt;Frekuensi&lt;/span&gt;" style="rounded=0;whiteSpace=wrap;html=1;strokeWidth=5;fillColor=#f8cecc;strokeColor=#23A9B8;" vertex="1" parent="QwPzHOpJwuAM30xLEDTP-1">
          <mxGeometry x="930" y="1330" width="210" height="60" as="geometry" />
        </mxCell>
        <mxCell id="QwPzHOpJwuAM30xLEDTP-9" value="&lt;span style=&quot;font-size: 25px&quot;&gt;DIAU&lt;/span&gt;" style="rounded=0;whiteSpace=wrap;html=1;strokeWidth=5;fillColor=#f8cecc;strokeColor=#23A9B8;" vertex="1" parent="QwPzHOpJwuAM30xLEDTP-1">
          <mxGeometry x="720" y="1450" width="210" height="60" as="geometry" />
        </mxCell>
        <mxCell id="QwPzHOpJwuAM30xLEDTP-10" value="&lt;span style=&quot;font-size: 25px&quot;&gt;7&lt;/span&gt;" style="rounded=0;whiteSpace=wrap;html=1;strokeWidth=5;fillColor=#f8cecc;strokeColor=#23A9B8;" vertex="1" parent="QwPzHOpJwuAM30xLEDTP-1">
          <mxGeometry x="930" y="1450" width="210" height="60" as="geometry" />
        </mxCell>
        <mxCell id="QwPzHOpJwuAM30xLEDTP-11" value="&lt;font style=&quot;font-size: 25px&quot;&gt;K&lt;/font&gt;" style="rounded=0;whiteSpace=wrap;html=1;strokeWidth=5;fillColor=#f8cecc;strokeColor=#23A9B8;" vertex="1" parent="QwPzHOpJwuAM30xLEDTP-1">
          <mxGeometry x="720" y="1390" width="210" height="60" as="geometry" />
        </mxCell>
        <mxCell id="QwPzHOpJwuAM30xLEDTP-12" value="&lt;span style=&quot;font-size: 25px&quot;&gt;5&lt;/span&gt;" style="rounded=0;whiteSpace=wrap;html=1;strokeWidth=5;fillColor=#f8cecc;strokeColor=#23A9B8;" vertex="1" parent="QwPzHOpJwuAM30xLEDTP-1">
          <mxGeometry x="930" y="1390" width="210" height="60" as="geometry" />
        </mxCell>
        <mxCell id="QwPzHOpJwuAM30xLEDTP-13" value="&lt;font style=&quot;font-size: 30px&quot;&gt;1&lt;/font&gt;" style="ellipse;whiteSpace=wrap;html=1;fillColor=#ffe6cc;strokeColor=#d79b00;" vertex="1" parent="QwPzHOpJwuAM30xLEDTP-1">
          <mxGeometry x="670" y="1000" width="150" height="80" as="geometry" />
        </mxCell>
        <mxCell id="QwPzHOpJwuAM30xLEDTP-14" value="&lt;font style=&quot;font-size: 30px&quot;&gt;1&lt;/font&gt;" style="ellipse;whiteSpace=wrap;html=1;fillColor=#ffe6cc;strokeColor=#d79b00;" vertex="1" parent="QwPzHOpJwuAM30xLEDTP-1">
          <mxGeometry x="920" y="1000" width="150" height="80" as="geometry" />
        </mxCell>
        <mxCell id="QwPzHOpJwuAM30xLEDTP-15" value="" style="endArrow=none;html=1;strokeWidth=10;exitX=0.647;exitY=-0.006;exitDx=0;exitDy=0;entryX=0.247;entryY=0.919;entryDx=0;entryDy=0;fillColor=#fad9d5;strokeColor=#2DA1AE;exitPerimeter=0;entryPerimeter=0;" edge="1" parent="QwPzHOpJwuAM30xLEDTP-1" source="QwPzHOpJwuAM30xLEDTP-13" target="QwPzHOpJwuAM30xLEDTP-2">
          <mxGeometry width="50" height="50" relative="1" as="geometry">
            <mxPoint x="980" y="1130" as="sourcePoint" />
            <mxPoint x="811.9669914110091" y="978.2842712474621" as="targetPoint" />
          </mxGeometry>
        </mxCell>
        <mxCell id="QwPzHOpJwuAM30xLEDTP-16" value="" style="endArrow=none;html=1;strokeWidth=10;exitX=0.34;exitY=-0.037;exitDx=0;exitDy=0;fillColor=#fad9d5;strokeColor=#2DA1AE;exitPerimeter=0;" edge="1" parent="QwPzHOpJwuAM30xLEDTP-1" source="QwPzHOpJwuAM30xLEDTP-14" target="QwPzHOpJwuAM30xLEDTP-2">
          <mxGeometry width="50" height="50" relative="1" as="geometry">
            <mxPoint x="544.14" y="1283.54" as="sourcePoint" />
            <mxPoint x="689.998943021652" y="1059.9972468441642" as="targetPoint" />
          </mxGeometry>
        </mxCell>
        <mxCell id="QwPzHOpJwuAM30xLEDTP-17" value="&lt;font style=&quot;font-size: 30px&quot;&gt;3&lt;/font&gt;" style="ellipse;whiteSpace=wrap;html=1;fillColor=#ffe6cc;strokeColor=#d79b00;" vertex="1" parent="QwPzHOpJwuAM30xLEDTP-1">
          <mxGeometry x="610" y="720" width="150" height="80" as="geometry" />
        </mxCell>
        <mxCell id="QwPzHOpJwuAM30xLEDTP-18" value="&lt;font style=&quot;font-size: 30px&quot;&gt;7&lt;/font&gt;" style="ellipse;whiteSpace=wrap;html=1;fillColor=#ffe6cc;strokeColor=#d79b00;" vertex="1" parent="QwPzHOpJwuAM30xLEDTP-1">
          <mxGeometry x="710" y="580" width="150" height="80" as="geometry" />
        </mxCell>
        <mxCell id="QwPzHOpJwuAM30xLEDTP-19" value="" style="endArrow=none;html=1;strokeWidth=10;exitX=0.5;exitY=0;exitDx=0;exitDy=0;entryX=0;entryY=1;entryDx=0;entryDy=0;fillColor=#fad9d5;strokeColor=#2DA1AE;" edge="1" parent="QwPzHOpJwuAM30xLEDTP-1" source="QwPzHOpJwuAM30xLEDTP-17" target="QwPzHOpJwuAM30xLEDTP-18">
          <mxGeometry width="50" height="50" relative="1" as="geometry">
            <mxPoint x="530.0000000000002" y="726" as="sourcePoint" />
            <mxPoint x="610.0000000000002" y="610" as="targetPoint" />
          </mxGeometry>
        </mxCell>
        <mxCell id="QwPzHOpJwuAM30xLEDTP-20" value="" style="endArrow=none;html=1;strokeWidth=10;fillColor=#fad9d5;strokeColor=#2DA1AE;" edge="1" parent="QwPzHOpJwuAM30xLEDTP-1" source="QwPzHOpJwuAM30xLEDTP-4" target="QwPzHOpJwuAM30xLEDTP-18">
          <mxGeometry width="50" height="50" relative="1" as="geometry">
            <mxPoint x="495" y="830" as="sourcePoint" />
            <mxPoint x="620" y="620" as="targetPoint" />
          </mxGeometry>
        </mxCell>
        <mxCell id="QwPzHOpJwuAM30xLEDTP-21" value="&lt;span style=&quot;font-size: 41px&quot;&gt;U&lt;/span&gt;" style="text;html=1;align=center;verticalAlign=middle;resizable=0;points=[];autosize=1;strokeWidth=1;fontSize=30;fontStyle=1;fontColor=#FFFF00;" vertex="1" parent="QwPzHOpJwuAM30xLEDTP-1">
          <mxGeometry x="630" y="820" width="50" height="40" as="geometry" />
        </mxCell>
        <mxCell id="QwPzHOpJwuAM30xLEDTP-22" value="&lt;font style=&quot;font-size: 41px&quot;&gt;D&lt;/font&gt;" style="text;html=1;align=center;verticalAlign=middle;resizable=0;points=[];autosize=1;strokeWidth=1;fontSize=30;fontStyle=1;fontColor=#FFFF00;" vertex="1" parent="QwPzHOpJwuAM30xLEDTP-1">
          <mxGeometry x="710" y="1110" width="50" height="40" as="geometry" />
        </mxCell>
        <mxCell id="QwPzHOpJwuAM30xLEDTP-23" value="&lt;font style=&quot;font-size: 41px&quot;&gt;I&lt;/font&gt;" style="text;html=1;align=center;verticalAlign=middle;resizable=0;points=[];autosize=1;strokeWidth=1;fontSize=30;fontStyle=1;fontColor=#FFFF00;" vertex="1" parent="QwPzHOpJwuAM30xLEDTP-1">
          <mxGeometry x="975" y="1110" width="30" height="40" as="geometry" />
        </mxCell>
        <mxCell id="QwPzHOpJwuAM30xLEDTP-24" value="&lt;font style=&quot;font-size: 41px&quot;&gt;A&lt;/font&gt;" style="text;html=1;align=center;verticalAlign=middle;resizable=0;points=[];autosize=1;strokeWidth=1;fontSize=30;fontStyle=1;fontColor=#FFFF00;" vertex="1" parent="QwPzHOpJwuAM30xLEDTP-1">
          <mxGeometry x="1220" y="1110" width="50" height="40" as="geometry" />
        </mxCell>
        <mxCell id="QwPzHOpJwuAM30xLEDTP-25" value="&lt;font style=&quot;font-size: 41px&quot;&gt;DI&lt;/font&gt;" style="text;html=1;align=center;verticalAlign=middle;resizable=0;points=[];autosize=1;strokeWidth=1;fontSize=30;fontStyle=1;fontColor=#FFFF00;" vertex="1" parent="QwPzHOpJwuAM30xLEDTP-1">
          <mxGeometry x="855" y="930" width="60" height="40" as="geometry" />
        </mxCell>
        <mxCell id="QwPzHOpJwuAM30xLEDTP-26" value="&lt;font style=&quot;font-size: 41px&quot;&gt;DIA&lt;/font&gt;" style="text;html=1;align=center;verticalAlign=middle;resizable=0;points=[];autosize=1;strokeWidth=1;fontSize=30;fontStyle=1;fontColor=#FFFF00;" vertex="1" parent="QwPzHOpJwuAM30xLEDTP-1">
          <mxGeometry x="1080" y="720" width="90" height="40" as="geometry" />
        </mxCell>
        <mxCell id="QwPzHOpJwuAM30xLEDTP-27" value="&lt;span style=&quot;font-size: 30px&quot;&gt;5&lt;/span&gt;" style="ellipse;whiteSpace=wrap;html=1;fillColor=#ffe6cc;strokeColor=#d79b00;" vertex="1" parent="QwPzHOpJwuAM30xLEDTP-1">
          <mxGeometry x="270" y="670" width="150" height="80" as="geometry" />
        </mxCell>
        <mxCell id="QwPzHOpJwuAM30xLEDTP-28" value="&lt;font style=&quot;font-size: 30px&quot;&gt;12&lt;/font&gt;" style="ellipse;whiteSpace=wrap;html=1;fillColor=#ffe6cc;strokeColor=#d79b00;" vertex="1" parent="QwPzHOpJwuAM30xLEDTP-1">
          <mxGeometry x="490" y="460" width="150" height="80" as="geometry" />
        </mxCell>
        <mxCell id="QwPzHOpJwuAM30xLEDTP-29" value="" style="endArrow=none;html=1;strokeWidth=10;entryX=0.32;entryY=1.006;entryDx=0;entryDy=0;fillColor=#fad9d5;strokeColor=#2DA1AE;entryPerimeter=0;" edge="1" parent="QwPzHOpJwuAM30xLEDTP-1" source="QwPzHOpJwuAM30xLEDTP-27" target="QwPzHOpJwuAM30xLEDTP-28">
          <mxGeometry width="50" height="50" relative="1" as="geometry">
            <mxPoint x="440" y="580" as="sourcePoint" />
            <mxPoint x="516.9669914110091" y="528.2842712474621" as="targetPoint" />
          </mxGeometry>
        </mxCell>
        <mxCell id="QwPzHOpJwuAM30xLEDTP-30" value="" style="endArrow=none;html=1;strokeWidth=10;fillColor=#fad9d5;strokeColor=#2DA1AE;exitX=0;exitY=0;exitDx=0;exitDy=0;" edge="1" parent="QwPzHOpJwuAM30xLEDTP-1" source="QwPzHOpJwuAM30xLEDTP-18" target="QwPzHOpJwuAM30xLEDTP-28">
          <mxGeometry width="50" height="50" relative="1" as="geometry">
            <mxPoint x="479.9994090445207" y="665.6628109505598" as="sourcePoint" />
            <mxPoint x="629.496991411009" y="500.00427124746216" as="targetPoint" />
          </mxGeometry>
        </mxCell>
        <mxCell id="QwPzHOpJwuAM30xLEDTP-32" value="&lt;span style=&quot;font-size: 41px&quot;&gt;K&lt;/span&gt;" style="text;html=1;align=center;verticalAlign=middle;resizable=0;points=[];autosize=1;strokeWidth=1;fontSize=30;fontStyle=1;fontColor=#FFFF00;" vertex="1" parent="QwPzHOpJwuAM30xLEDTP-1">
          <mxGeometry x="310" y="780" width="50" height="40" as="geometry" />
        </mxCell>
        <mxCell id="QwPzHOpJwuAM30xLEDTP-33" value="&lt;font style=&quot;font-size: 41px&quot;&gt;0&lt;/font&gt;&lt;span style=&quot;color: rgba(0 , 0 , 0 , 0) ; font-family: monospace ; font-size: 0px ; font-weight: 400&quot;&gt;%3CmxGraphModel%3E%3Croot%3E%3CmxCell%20id%3D%220%22%2F%3E%3CmxCell%20id%3D%221%22%20parent%3D%220%22%2F%3E%3CmxCell%20id%3D%222%22%20value%3D%22%26lt%3Bfont%20style%3D%26quot%3Bfont-size%3A%2041px%26quot%3B%26gt%3BD%26lt%3B%2Ffont%26gt%3B%22%20style%3D%22text%3Bhtml%3D1%3Balign%3Dcenter%3BverticalAlign%3Dmiddle%3Bresizable%3D0%3Bpoints%3D%5B%5D%3Bautosize%3D1%3BstrokeWidth%3D1%3BfontSize%3D30%3BfontStyle%3D1%3BfontColor%3D%23FFFF00%3B%22%20vertex%3D%221%22%20parent%3D%221%22%3E%3CmxGeometry%20x%3D%22710%22%20y%3D%221110%22%20width%3D%2250%22%20height%3D%2240%22%20as%3D%22geometry%22%2F%3E%3C%2FmxCell%3E%3C%2Froot%3E%3C%2FmxGraphModel%3E&lt;/span&gt;" style="text;html=1;align=center;verticalAlign=middle;resizable=0;points=[];autosize=1;strokeWidth=1;fontSize=30;fontStyle=1;" vertex="1" parent="QwPzHOpJwuAM30xLEDTP-1">
          <mxGeometry x="735" y="930" width="40" height="60" as="geometry" />
        </mxCell>
        <mxCell id="QwPzHOpJwuAM30xLEDTP-34" value="&lt;span style=&quot;font-size: 41px&quot;&gt;1&lt;/span&gt;" style="text;html=1;align=center;verticalAlign=middle;resizable=0;points=[];autosize=1;strokeWidth=1;fontSize=30;fontStyle=1;labelBackgroundColor=#ffffff;fontColor=#1A1A1A;" vertex="1" parent="QwPzHOpJwuAM30xLEDTP-1">
          <mxGeometry x="995" y="940" width="40" height="40" as="geometry" />
        </mxCell>
        <mxCell id="QwPzHOpJwuAM30xLEDTP-35" value="&lt;font style=&quot;font-size: 41px&quot;&gt;1&lt;/font&gt;" style="text;html=1;align=center;verticalAlign=middle;resizable=0;points=[];autosize=1;strokeWidth=1;fontSize=30;fontStyle=1;fontColor=#1A1A1A;" vertex="1" parent="QwPzHOpJwuAM30xLEDTP-1">
          <mxGeometry x="1205" y="890" width="40" height="40" as="geometry" />
        </mxCell>
        <mxCell id="QwPzHOpJwuAM30xLEDTP-36" value="&lt;font style=&quot;font-size: 41px&quot;&gt;0&lt;/font&gt;" style="text;html=1;align=center;verticalAlign=middle;resizable=0;points=[];autosize=1;strokeWidth=1;fontSize=30;fontStyle=1;fontColor=#1A1A1A;" vertex="1" parent="QwPzHOpJwuAM30xLEDTP-1">
          <mxGeometry x="830" y="800" width="40" height="40" as="geometry" />
        </mxCell>
        <mxCell id="QwPzHOpJwuAM30xLEDTP-37" value="&lt;font style=&quot;font-size: 41px&quot; color=&quot;#1a1a1a&quot;&gt;0&lt;/font&gt;" style="text;html=1;align=center;verticalAlign=middle;resizable=0;points=[];autosize=1;strokeWidth=1;fontSize=30;fontStyle=1;fontColor=#FFFF00;" vertex="1" parent="QwPzHOpJwuAM30xLEDTP-1">
          <mxGeometry x="635" y="660" width="40" height="40" as="geometry" />
        </mxCell>
        <mxCell id="QwPzHOpJwuAM30xLEDTP-38" value="&lt;font style=&quot;font-size: 41px&quot; color=&quot;#1a1a1a&quot;&gt;1&lt;/font&gt;" style="text;html=1;align=center;verticalAlign=middle;resizable=0;points=[];autosize=1;strokeWidth=1;fontSize=30;fontStyle=1;fontColor=#FFFF00;" vertex="1" parent="QwPzHOpJwuAM30xLEDTP-1">
          <mxGeometry x="955" y="640" width="40" height="40" as="geometry" />
        </mxCell>
        <mxCell id="QwPzHOpJwuAM30xLEDTP-39" value="&lt;font style=&quot;font-size: 41px&quot; color=&quot;#000000&quot;&gt;0&lt;/font&gt;" style="text;html=1;align=center;verticalAlign=middle;resizable=0;points=[];autosize=1;strokeWidth=1;fontSize=30;fontStyle=1;fontColor=#FFFF00;" vertex="1" parent="QwPzHOpJwuAM30xLEDTP-1">
          <mxGeometry x="355" y="550" width="40" height="40" as="geometry" />
        </mxCell>
        <mxCell id="QwPzHOpJwuAM30xLEDTP-40" value="&lt;font style=&quot;font-size: 41px&quot; color=&quot;#1a1a1a&quot;&gt;1&lt;/font&gt;" style="text;html=1;align=center;verticalAlign=middle;resizable=0;points=[];autosize=1;strokeWidth=1;fontSize=30;fontStyle=1;fontColor=#FFFF00;" vertex="1" parent="QwPzHOpJwuAM30xLEDTP-1">
          <mxGeometry x="725" y="520" width="40" height="40" as="geometry" />
        </mxCell>
      </root>
    </mxGraphModel>
  </diagram>
  <diagram id="JoGlUeP7u4ZjQ9KSQzYU" name="Page-5">
    <mxGraphModel dx="1552" dy="725" grid="1" gridSize="10" guides="1" tooltips="1" connect="1" arrows="1" fold="1" page="1" pageScale="1" pageWidth="1920" pageHeight="1200" math="0" shadow="0">
      <root>
        <mxCell id="8TPUEVs9T_0YmDG7WoQb-0" />
        <mxCell id="8TPUEVs9T_0YmDG7WoQb-1" parent="8TPUEVs9T_0YmDG7WoQb-0" />
        <mxCell id="8TPUEVs9T_0YmDG7WoQb-2" value="&lt;font style=&quot;font-size: 25px&quot;&gt;Huruf&lt;/font&gt;" style="rounded=0;whiteSpace=wrap;html=1;strokeWidth=5;fillColor=#f8cecc;strokeColor=#23A9B8;" vertex="1" parent="8TPUEVs9T_0YmDG7WoQb-1">
          <mxGeometry x="410" y="470" width="210" height="60" as="geometry" />
        </mxCell>
        <mxCell id="8TPUEVs9T_0YmDG7WoQb-3" value="&lt;span style=&quot;font-size: 25px&quot;&gt;Code&lt;/span&gt;" style="rounded=0;whiteSpace=wrap;html=1;strokeWidth=5;fillColor=#f8cecc;strokeColor=#23A9B8;" vertex="1" parent="8TPUEVs9T_0YmDG7WoQb-1">
          <mxGeometry x="830" y="470" width="210" height="60" as="geometry" />
        </mxCell>
        <mxCell id="8TPUEVs9T_0YmDG7WoQb-4" value="&lt;font style=&quot;font-size: 25px&quot;&gt;D&lt;/font&gt;" style="rounded=0;whiteSpace=wrap;html=1;strokeWidth=5;fillColor=#f8cecc;strokeColor=#23A9B8;" vertex="1" parent="8TPUEVs9T_0YmDG7WoQb-1">
          <mxGeometry x="410" y="530" width="210" height="60" as="geometry" />
        </mxCell>
        <mxCell id="8TPUEVs9T_0YmDG7WoQb-5" value="&lt;span style=&quot;font-size: 25px&quot;&gt;0011&lt;/span&gt;" style="rounded=0;whiteSpace=wrap;html=1;strokeWidth=5;fillColor=#f8cecc;strokeColor=#23A9B8;" vertex="1" parent="8TPUEVs9T_0YmDG7WoQb-1">
          <mxGeometry x="830" y="530" width="210" height="60" as="geometry" />
        </mxCell>
        <mxCell id="8TPUEVs9T_0YmDG7WoQb-6" value="&lt;font style=&quot;font-size: 25px&quot;&gt;I&lt;/font&gt;" style="rounded=0;whiteSpace=wrap;html=1;strokeWidth=5;fillColor=#f8cecc;strokeColor=#23A9B8;" vertex="1" parent="8TPUEVs9T_0YmDG7WoQb-1">
          <mxGeometry x="410" y="590" width="210" height="60" as="geometry" />
        </mxCell>
        <mxCell id="8TPUEVs9T_0YmDG7WoQb-7" value="&lt;span style=&quot;font-size: 25px&quot;&gt;1011&lt;/span&gt;" style="rounded=0;whiteSpace=wrap;html=1;strokeWidth=5;fillColor=#f8cecc;strokeColor=#23A9B8;" vertex="1" parent="8TPUEVs9T_0YmDG7WoQb-1">
          <mxGeometry x="830" y="590" width="210" height="60" as="geometry" />
        </mxCell>
        <mxCell id="8TPUEVs9T_0YmDG7WoQb-8" value="&lt;font style=&quot;font-size: 25px&quot;&gt;A&lt;/font&gt;" style="rounded=0;whiteSpace=wrap;html=1;strokeWidth=5;fillColor=#f8cecc;strokeColor=#23A9B8;" vertex="1" parent="8TPUEVs9T_0YmDG7WoQb-1">
          <mxGeometry x="410" y="650" width="210" height="60" as="geometry" />
        </mxCell>
        <mxCell id="8TPUEVs9T_0YmDG7WoQb-9" value="&lt;span style=&quot;font-size: 25px&quot;&gt;111&lt;/span&gt;" style="rounded=0;whiteSpace=wrap;html=1;strokeWidth=5;fillColor=#f8cecc;strokeColor=#23A9B8;" vertex="1" parent="8TPUEVs9T_0YmDG7WoQb-1">
          <mxGeometry x="830" y="650" width="210" height="60" as="geometry" />
        </mxCell>
        <mxCell id="8TPUEVs9T_0YmDG7WoQb-10" value="&lt;font style=&quot;font-size: 25px&quot;&gt;U&lt;/font&gt;" style="rounded=0;whiteSpace=wrap;html=1;strokeWidth=5;fillColor=#f8cecc;strokeColor=#23A9B8;" vertex="1" parent="8TPUEVs9T_0YmDG7WoQb-1">
          <mxGeometry x="410" y="710" width="210" height="60" as="geometry" />
        </mxCell>
        <mxCell id="8TPUEVs9T_0YmDG7WoQb-11" value="&lt;span style=&quot;font-size: 25px&quot;&gt;01&lt;/span&gt;" style="rounded=0;whiteSpace=wrap;html=1;strokeWidth=5;fillColor=#f8cecc;strokeColor=#23A9B8;" vertex="1" parent="8TPUEVs9T_0YmDG7WoQb-1">
          <mxGeometry x="830" y="710" width="210" height="60" as="geometry" />
        </mxCell>
        <mxCell id="8TPUEVs9T_0YmDG7WoQb-12" value="&lt;font style=&quot;font-size: 25px&quot;&gt;K&lt;/font&gt;" style="rounded=0;whiteSpace=wrap;html=1;strokeWidth=5;fillColor=#f8cecc;strokeColor=#23A9B8;" vertex="1" parent="8TPUEVs9T_0YmDG7WoQb-1">
          <mxGeometry x="410" y="770" width="210" height="60" as="geometry" />
        </mxCell>
        <mxCell id="8TPUEVs9T_0YmDG7WoQb-13" value="&lt;span style=&quot;font-size: 25px&quot;&gt;0&lt;/span&gt;" style="rounded=0;whiteSpace=wrap;html=1;strokeWidth=5;fillColor=#f8cecc;strokeColor=#23A9B8;" vertex="1" parent="8TPUEVs9T_0YmDG7WoQb-1">
          <mxGeometry x="830" y="770" width="210" height="60" as="geometry" />
        </mxCell>
        <mxCell id="NpgMTeqsZGQFH6sM3FFX-0" value="&lt;span style=&quot;font-size: 25px&quot;&gt;Frekuensi&lt;/span&gt;" style="rounded=0;whiteSpace=wrap;html=1;strokeWidth=5;fillColor=#f8cecc;strokeColor=#23A9B8;" vertex="1" parent="8TPUEVs9T_0YmDG7WoQb-1">
          <mxGeometry x="620" y="470" width="210" height="60" as="geometry" />
        </mxCell>
        <mxCell id="NpgMTeqsZGQFH6sM3FFX-1" value="&lt;span style=&quot;font-size: 25px&quot;&gt;1&lt;/span&gt;" style="rounded=0;whiteSpace=wrap;html=1;strokeWidth=5;fillColor=#f8cecc;strokeColor=#23A9B8;" vertex="1" parent="8TPUEVs9T_0YmDG7WoQb-1">
          <mxGeometry x="620" y="530" width="210" height="60" as="geometry" />
        </mxCell>
        <mxCell id="NpgMTeqsZGQFH6sM3FFX-2" value="&lt;span style=&quot;font-size: 25px&quot;&gt;1&lt;/span&gt;" style="rounded=0;whiteSpace=wrap;html=1;strokeWidth=5;fillColor=#f8cecc;strokeColor=#23A9B8;" vertex="1" parent="8TPUEVs9T_0YmDG7WoQb-1">
          <mxGeometry x="620" y="590" width="210" height="60" as="geometry" />
        </mxCell>
        <mxCell id="NpgMTeqsZGQFH6sM3FFX-3" value="&lt;span style=&quot;font-size: 25px&quot;&gt;2&lt;/span&gt;" style="rounded=0;whiteSpace=wrap;html=1;strokeWidth=5;fillColor=#f8cecc;strokeColor=#23A9B8;" vertex="1" parent="8TPUEVs9T_0YmDG7WoQb-1">
          <mxGeometry x="620" y="650" width="210" height="60" as="geometry" />
        </mxCell>
        <mxCell id="NpgMTeqsZGQFH6sM3FFX-4" value="&lt;span style=&quot;font-size: 25px&quot;&gt;3&lt;/span&gt;" style="rounded=0;whiteSpace=wrap;html=1;strokeWidth=5;fillColor=#f8cecc;strokeColor=#23A9B8;" vertex="1" parent="8TPUEVs9T_0YmDG7WoQb-1">
          <mxGeometry x="620" y="710" width="210" height="60" as="geometry" />
        </mxCell>
        <mxCell id="NpgMTeqsZGQFH6sM3FFX-5" value="&lt;span style=&quot;font-size: 25px&quot;&gt;5&lt;/span&gt;" style="rounded=0;whiteSpace=wrap;html=1;strokeWidth=5;fillColor=#f8cecc;strokeColor=#23A9B8;" vertex="1" parent="8TPUEVs9T_0YmDG7WoQb-1">
          <mxGeometry x="620" y="770" width="210" height="60" as="geometry" />
        </mxCell>
      </root>
    </mxGraphModel>
  </diagram>
</mxfile>
